<svg xmlns="http://www.w3.org/2000/svg" viewBox="0 0 24 24"><defs><style>.cls-1,.cls-2{fill:none;}.cls-2{stroke:#323232;stroke-linecap:round;stroke-linejoin:round;stroke-width:1.5px;}</style></defs><g id="Layer_2" data-name="Layer 2"><g id="Icons"><path class="cls-1" d="M0,0H24V24H0Z"/><path class="cls-2" d="M7.73,20.83a1.5,1.5,0,0,1-2.17-1.59l.81-4.64L3,11.34a1.5,1.5,0,0,1,.83-2.57l4.73-.68,2.14-4.26a1.49,1.49,0,0,1,2.68,0l2.14,4.26,4.73.68A1.5,1.5,0,0,1,21,11.34L17.63,14.6l.81,4.64a1.5,1.5,0,0,1-2.17,1.59L12,18.62Z"/></g></g></svg>